<svg width="182" height="36" viewBox="0 0 182 36" fill="none" xmlns="http://www.w3.org/2000/svg">
<mask id="mask0_512_369" style="mask-type:luminance" maskUnits="userSpaceOnUse" x="0" y="0" width="36" height="36">
<path d="M21.995 29.457C24.352 29.428 26.589 29.083 28.569 28.418C29.067 28.25 29.543 28.064 29.993 27.863C29.442 29.208 28.633 30.33 27.578 31.164C25.497 32.696 23.042 33.747 20.377 34.148C21.043 32.996 21.581 31.368 21.995 29.457ZM10.902 32.725C10.853 32.684 10.8 32.646 10.74 32.618C9.813 32.166 9.438 30.099 9.921 26.938C11.703 27.739 13.643 28.374 15.682 28.809C17.227 29.139 18.767 29.343 20.272 29.422C19.534 32.63 18.588 34.315 17.961 34.315C17.921 34.315 17.882 34.322 17.844 34.328C15.36 34.311 13.006 33.74 10.902 32.725ZM2.295 22.506C2.152 21.964 2.063 21.411 2.026 20.849C2.584 21.643 3.263 22.417 4.072 23.165C5.294 24.293 6.744 25.303 8.36 26.169C8.03 28.015 7.937 29.688 8.145 31.036C5.36 28.93 3.276 25.949 2.295 22.506ZM23.046 18.023C23.046 17.371 23.036 16.716 23.017 16.064C25.094 15.926 27.017 15.386 28.591 14.481C30.049 17.365 30.831 20.408 30.825 23.28C30.824 24.112 30.752 24.903 30.62 25.65C29.87 26.109 29.007 26.507 28.036 26.835C26.312 27.415 24.37 27.731 22.311 27.784C22.807 24.817 23.046 21.372 23.046 18.023ZM16.032 27.178C13.964 26.735 12.01 26.078 10.241 25.247C10.822 22.633 11.904 19.466 13.618 15.95C13.867 15.441 14.121 14.94 14.38 14.45C15.579 14.988 16.884 15.415 18.252 15.707C19.291 15.93 20.331 16.051 21.348 16.086C21.367 16.712 21.375 17.357 21.375 18.023C21.375 21.954 21.061 25.217 20.607 27.767C19.115 27.702 17.578 27.507 16.032 27.178ZM5.206 21.94C3.788 20.63 2.813 19.242 2.316 17.864C2.71 16.32 3.472 14.77 4.593 13.285C5.656 11.877 6.979 10.609 8.496 9.519C8.934 10.31 9.547 11.082 10.328 11.814C11.07 12.509 11.935 13.139 12.894 13.69C12.63 14.191 12.372 14.7 12.12 15.218C10.639 18.253 9.43 21.51 8.72 24.464C7.401 23.721 6.216 22.875 5.206 21.94ZM21.912 6.427C23.81 7.84 25.55 9.663 27.005 11.795C27.281 12.199 27.541 12.61 27.788 13.025C26.455 13.796 24.767 14.257 22.948 14.386C22.794 11.505 22.453 8.733 21.912 6.427ZM18.602 14.075C17.394 13.818 16.246 13.447 15.188 12.982C16.746 10.257 18.449 7.888 20.13 6.127C20.655 8.193 21.095 10.971 21.281 14.415C20.396 14.378 19.496 14.267 18.602 14.075ZM11.469 10.596C10.778 9.95 10.254 9.276 9.901 8.599C11.465 7.658 13.196 6.891 15.04 6.336C16.137 6.006 17.247 5.762 18.354 5.593C16.756 7.384 15.16 9.659 13.697 12.229C12.861 11.746 12.112 11.199 11.469 10.596ZM7.879 5.277C7.856 5.361 7.832 5.447 7.813 5.535C7.644 6.322 7.664 7.129 7.862 7.929C6.066 9.168 4.504 10.633 3.26 12.279C2.881 12.78 2.542 13.292 2.235 13.807C3.16 10.389 5.172 7.415 7.879 5.277ZM9.445 5.883C9.63 5.017 10.151 4.243 10.956 3.603C12.905 3.021 15.172 3.161 17.555 4.033C16.552 4.207 15.549 4.439 14.56 4.738C12.719 5.29 10.981 6.046 9.389 6.964C9.353 6.599 9.37 6.237 9.445 5.883ZM22.988 3.684C23.561 3.313 24.089 3.059 24.53 2.954C25.367 3.289 26.197 3.718 26.984 4.26C25.721 3.944 24.378 3.752 22.988 3.684ZM20.176 1.897C20.853 1.973 21.576 2.089 22.319 2.262C21.854 2.512 21.372 2.824 20.881 3.199C20.663 2.706 20.428 2.272 20.176 1.897ZM18.367 2.552C17.612 2.263 16.866 2.039 16.13 1.879C16.72 1.813 17.317 1.775 17.925 1.775C18.209 1.778 18.558 2.12 18.923 2.781C18.738 2.702 18.553 2.624 18.367 2.552ZM0 18.052C0 19.758 0.244999 21.407 0.691999 22.972C0.718999 23.077 0.745001 23.182 0.776001 23.287C0.782001 23.306 0.791 23.324 0.798 23.345C3.062 30.666 9.894 35.999 17.948 35.999C21.674 35.999 25.137 34.857 28.009 32.907C28.038 32.89 28.067 32.876 28.093 32.858C28.263 32.742 28.428 32.62 28.588 32.492C31.891 30.053 34.329 26.51 35.357 22.411C35.415 22.223 35.465 22.031 35.507 21.837C35.517 21.79 35.52 21.746 35.522 21.7C35.767 20.521 35.895 19.301 35.895 18.053C35.895 15.631 35.421 13.28 34.484 11.068C34.304 10.643 33.815 10.444 33.39 10.625C32.965 10.803 32.767 11.294 32.946 11.718C33.795 13.723 34.225 15.855 34.225 18.053C34.225 19.4 34.058 20.708 33.747 21.961C33.5 22.751 33.067 23.482 32.468 24.146C32.483 23.863 32.492 23.577 32.493 23.284C32.5 20.082 31.614 16.7 29.972 13.521C31.176 12.487 31.945 11.209 32.208 9.78C32.292 9.327 31.992 8.892 31.539 8.808C31.085 8.723 30.65 9.023 30.566 9.477C30.392 10.422 29.901 11.289 29.133 12.025C28.894 11.63 28.646 11.239 28.383 10.854C26.918 8.706 25.177 6.848 23.272 5.365C25.787 5.531 28.111 6.14 29.983 7.186C30.276 7.353 30.666 7.348 30.941 7.119C31.295 6.824 31.343 6.296 31.046 5.942C28.357 2.181 23.706 0.106003 17.946 0.106003C8.052 0.105003 0 8.156 0 18.052Z" fill="white"/>
</mask>
<g mask="url(#mask0_512_369)">
<path d="M35.895 0.104996H0V35.999H35.895V0.104996Z" fill="url(#paint0_radial_512_369)"/>
</g>
<path d="M43.03 29V22.903H44.232V29H43.03Z" fill="#00AEEF"/>
<path d="M45.304 29V22.903H47.611C48.858 22.903 49.579 23.375 49.579 24.513C49.579 25.594 48.936 25.779 48.63 25.779V25.795C49.039 25.795 49.99 26.153 49.99 27.29C49.99 28.564 48.988 29 47.864 29H45.304ZM47.473 25.448C48.125 25.448 48.343 25.125 48.343 24.655C48.343 24.166 48.02 23.88 47.305 23.88H46.504V25.448H47.473ZM47.601 28.024C48.203 28.024 48.657 27.835 48.657 27.163C48.657 26.535 48.194 26.293 47.577 26.293H46.505V28.024H47.601Z" fill="#00AEEF"/>
<path d="M55.804 28.983C55.804 28.983 55.579 29.043 55.177 29.043C53.33 29.043 53.836 26.718 52.546 26.718H51.904V29H50.702V22.903H52.843C54.341 22.903 55.143 23.453 55.143 24.821C55.143 25.718 54.559 26.194 54.088 26.37C54.715 26.884 54.751 28.067 55.551 28.067H55.803L55.804 28.983ZM52.704 25.813C53.428 25.813 53.959 25.48 53.959 24.855C53.959 24.246 53.532 23.877 52.801 23.877H51.904V25.813H52.704Z" fill="#00AEEF"/>
<path d="M56.334 29V22.903H58.12C59.721 22.903 61.15 23.767 61.15 26.057C61.15 28.225 59.86 28.999 58.379 28.999H56.334V29ZM58.37 28.024C59.304 28.024 59.955 27.345 59.955 26.039C59.955 24.688 59.382 23.878 58.101 23.878H57.535V28.024H58.37Z" fill="#00AEEF"/>
<path d="M64.721 27.607C64.094 27.607 63.598 27.102 63.598 26.474C63.598 25.847 64.094 25.343 64.721 25.343C65.347 25.343 65.852 25.847 65.852 26.474C65.852 27.102 65.347 27.607 64.721 27.607Z" fill="#00AEEF"/>
<path d="M68.577 29V22.903H69.779V29H68.577Z" fill="#00AEEF"/>
<path d="M70.848 29V22.903H72.633C74.236 22.903 75.664 23.767 75.664 26.057C75.664 28.225 74.376 28.999 72.895 28.999H70.848V29ZM72.887 28.024C73.82 28.024 74.474 27.345 74.474 26.039C74.474 24.688 73.899 23.878 72.619 23.878H72.053V28.024H72.887Z" fill="#00AEEF"/>
<path d="M79.637 27.478H77.474L76.96 28.999H75.706L77.945 22.903H79.172L81.411 28.999H80.166L79.637 27.478ZM77.798 26.562H79.331L78.556 24.349L77.798 26.562Z" fill="#00AEEF"/>
<path d="M39.845 8.10699H48.907V9.96599H45.579V19.29H43.176V9.96599H39.846L39.845 8.10699Z" fill="white"/>
<path d="M50.18 19.29V8.10699H52.582V12.521H56.811V8.10699H59.242V19.29H56.842V14.379H52.582V19.29H50.18Z" fill="white"/>
<path d="M61.198 8.10699H68.696V9.96599H63.601V12.584H68.372V14.442H63.601V17.432H68.867V19.29H61.199L61.198 8.10699Z" fill="white"/>
<path d="M80.625 8.10699H83.334L85.286 16.518H85.317L87.115 8.10699H89.407L86.557 19.29H83.894L81.881 10.77H81.85L79.679 19.29H76.955L74.229 8.10699H76.708L78.426 16.518H78.459L80.625 8.10699Z" fill="white"/>
<path d="M90.223 13.699C90.223 10.4 91.895 7.873 95.596 7.873C99.296 7.873 100.971 10.399 100.971 13.699C100.971 16.999 99.296 19.521 95.596 19.521C91.893 19.521 90.223 16.998 90.223 13.699ZM92.776 13.699C92.776 15.617 93.226 17.786 95.595 17.786C97.965 17.786 98.415 15.617 98.415 13.699C98.415 11.777 97.965 9.607 95.595 9.607C93.226 9.607 92.776 11.778 92.776 13.699Z" fill="white"/>
<path d="M104.957 19.29H102.555V8.10699H107.309C109.231 8.12199 111.198 8.74099 111.198 11.02C111.198 12.475 110.253 13.437 108.875 13.73V13.762C110.719 13.963 110.719 15.093 110.92 16.643C111.03 17.356 111.121 18.673 111.57 19.29H108.921C108.721 18.3 108.611 17.293 108.504 16.285C108.441 15.667 108.285 14.815 107.497 14.785H104.958V19.29H104.957ZM104.957 12.924H106.968C108.024 12.906 108.642 12.382 108.642 11.389C108.642 10.399 108.024 9.97999 106.968 9.96499H104.957V12.924Z" fill="white"/>
<path d="M113.031 19.29V8.10699H115.433V17.432H120.281V19.29H113.031Z" fill="white"/>
<path d="M121.584 8.107H125.396C128.879 8.077 131.048 9.81 131.048 13.699C131.048 17.586 128.879 19.32 125.396 19.289H121.584V8.107ZM123.984 17.431H125.223C128.075 17.462 128.494 15.478 128.494 13.699C128.494 11.917 128.075 9.935 125.223 9.966H123.984V17.431Z" fill="white"/>
<path d="M137.126 19.29V8.10699H141.324C143.322 7.98299 145.367 8.821 145.367 11.004C145.367 12.227 144.513 13.08 143.399 13.45V13.482C144.81 13.777 145.861 14.753 145.861 16.393C145.861 18.608 143.071 19.415 141.354 19.29H137.126ZM141.401 17.431C142.532 17.431 143.306 17.229 143.306 15.944C143.306 14.659 142.533 14.457 141.401 14.457H139.525V17.432H141.401V17.431ZM141.401 12.6C142.408 12.6 142.964 12.181 142.964 11.283C142.964 10.383 142.407 9.967 141.401 9.967H139.525V12.601L141.401 12.6Z" fill="white"/>
<path d="M146.611 19.29L150.655 8.10699H153.505L157.391 19.29H154.977L154.171 16.92H149.741L148.903 19.29H146.611ZM153.566 15.062L152.033 10.291H152.001L150.36 15.062H153.566Z" fill="white"/>
<path d="M165.312 19.29L160.897 9.996L160.866 10.028V19.29H158.621V8.107H162.182L166.444 16.905L166.474 16.872V8.106H168.72V19.29H165.312Z" fill="white"/>
<path d="M173.092 12.94H173.123L176.841 8.10699H179.644L175.539 13.11L180.001 19.29H177.012L173.124 13.59H173.093V19.29H170.693V8.10699H173.093V12.94H173.092Z" fill="white"/>
<defs>
<radialGradient id="paint0_radial_512_369" cx="0" cy="0" r="1" gradientUnits="userSpaceOnUse" gradientTransform="translate(34.3042 6.7914) scale(29.7274 29.7275)">
<stop stop-color="white"/>
<stop offset="0.0598" stop-color="#E7F6FD"/>
<stop offset="0.1829" stop-color="#AFE2FA"/>
<stop offset="0.3589" stop-color="#37C6F4"/>
<stop offset="0.544" stop-color="#00AEEF"/>
<stop offset="1" stop-color="#002F54"/>
</radialGradient>
</defs>
</svg>
